<?xml version="1.0" encoding="utf-8"?>
<!-- Generator: Adobe Illustrator 24.3.0, SVG Export Plug-In . SVG Version: 6.00 Build 0)  -->
<svg version="1.1" id="Layer_1" xmlns="http://www.w3.org/2000/svg" xmlns:xlink="http://www.w3.org/1999/xlink" x="0px" y="0px"
	 viewBox="0 0 144.9 149.3" style="enable-background:new 0 0 144.9 149.3;" xml:space="preserve">
<style type="text/css">
	.st0{fill:rgba(255, 255, 255, 0.2);}
</style>
<g>
	<g>
		<path class="st0" d="M34.1,44.2c11.2-0.2,20.2-9.4,20.2-20.7c0-11.4-9.3-20.7-20.7-20.7s-20.7,9.3-20.7,20.7
			c0,10.7,8.1,19.4,18.4,20.6v8.8L1.9,78.4l1.8,2.1l27.7-24v50.7L6.8,144.3l2.3,1.5l23.6-35.6l21,36.8l2.4-1.3l-21.9-38.4V57
			l27.4,24l1.8-2L34.1,53.4L34.1,44.2L34.1,44.2z M15.7,23.5c0-9.9,8.1-18,18-18s18,8.1,18,18c0,9.9-8.1,18-18,18
			S15.7,33.5,15.7,23.5z"/>
		<circle class="st0" cx="27.3" cy="18.7" r="1.8"/>
		<circle class="st0" cx="38.2" cy="18.7" r="1.8"/>
		<path class="st0" d="M42.3,28.5h-2.7c0,2.1-3.1,3.9-6.8,3.9s-6.8-1.8-6.8-3.9h-2.7c0,3.7,4.2,6.6,9.5,6.6
			C38.1,35.2,42.3,32.3,42.3,28.5z"/>
	</g>
	<g>
		<path class="st0" d="M110.1,105.5c-11.2,0.2-20.3,9.4-20.3,20.7c0,11.4,9.3,20.7,20.7,20.7s20.7-9.3,20.7-20.7
			c0-10.6-8.1-19.4-18.4-20.6v-8.8l29.5-25.5l-1.8-2.1l-27.7,24V42.6l24.6-37.1L135.1,4l-23.6,35.6l-21-36.8l-2.4,1.3l21.9,38.4
			v50.2l-27.4-24l-1.8,2l29.2,25.6V105.5z M128.5,126.2c0,9.9-8.1,18-18,18c-9.9,0-18-8.1-18-18c0-9.9,8.1-18,18-18
			C120.5,108.2,128.5,116.3,128.5,126.2z"/>
		<path class="st0" d="M116.9,129.3c-1,0-1.8,0.8-1.8,1.8c0,1,0.8,1.8,1.8,1.8c1,0,1.8-0.8,1.8-1.8
			C118.7,130.1,117.9,129.3,116.9,129.3z"/>
		<circle class="st0" cx="106" cy="131.1" r="1.8"/>
		<path class="st0" d="M102,121.2h2.7c0-2.1,3.1-3.9,6.8-3.9c3.7,0,6.8,1.8,6.8,3.9h2.7c0-3.7-4.2-6.6-9.5-6.6
			C106.1,114.6,102,117.5,102,121.2z"/>
	</g>
</g>
</svg>
